<mxfile host="Electron" modified="2025-01-27T17:28:41.177Z" agent="Mozilla/5.0 (Windows NT 10.0; Win64; x64) AppleWebKit/537.36 (KHTML, like Gecko) draw.io/24.4.6 Chrome/124.0.6367.207 Electron/30.0.6 Safari/537.36" etag="3vbaHH5ehrDU3g-Rohgh" version="24.4.6" type="device">
  <diagram id="C5RBs43oDa-KdzZeNtuy" name="Page-1">
    <mxGraphModel dx="1290" dy="1790" grid="1" gridSize="10" guides="1" tooltips="1" connect="1" arrows="1" fold="1" page="1" pageScale="1" pageWidth="827" pageHeight="1169" math="0" shadow="0">
      <root>
        <mxCell id="WIyWlLk6GJQsqaUBKTNV-0" />
        <mxCell id="WIyWlLk6GJQsqaUBKTNV-1" parent="WIyWlLk6GJQsqaUBKTNV-0" />
        <mxCell id="cyFxnOvqambi-OT4J-ao-19" value="" style="rounded=0;whiteSpace=wrap;html=1;" parent="WIyWlLk6GJQsqaUBKTNV-1" vertex="1">
          <mxGeometry x="460" y="-20" width="430" height="780" as="geometry" />
        </mxCell>
        <mxCell id="cyFxnOvqambi-OT4J-ao-18" value="" style="rounded=0;whiteSpace=wrap;html=1;" parent="WIyWlLk6GJQsqaUBKTNV-1" vertex="1">
          <mxGeometry x="30" y="-20" width="430" height="780" as="geometry" />
        </mxCell>
        <mxCell id="WIyWlLk6GJQsqaUBKTNV-3" value="Request new category" style="rounded=1;whiteSpace=wrap;html=1;fontSize=12;glass=0;strokeWidth=1;shadow=0;" parent="WIyWlLk6GJQsqaUBKTNV-1" vertex="1">
          <mxGeometry x="600" y="120" width="120" height="40" as="geometry" />
        </mxCell>
        <mxCell id="cyFxnOvqambi-OT4J-ao-20" value="Admin" style="text;html=1;align=center;verticalAlign=middle;whiteSpace=wrap;rounded=0;" parent="WIyWlLk6GJQsqaUBKTNV-1" vertex="1">
          <mxGeometry x="200" y="-20" width="60" height="30" as="geometry" />
        </mxCell>
        <mxCell id="cyFxnOvqambi-OT4J-ao-21" value="Artist" style="text;html=1;align=center;verticalAlign=middle;whiteSpace=wrap;rounded=0;" parent="WIyWlLk6GJQsqaUBKTNV-1" vertex="1">
          <mxGeometry x="630" y="-20" width="60" height="30" as="geometry" />
        </mxCell>
        <mxCell id="cyFxnOvqambi-OT4J-ao-31" value="" style="ellipse;html=1;shape=startState;fillColor=#000000;strokeColor=#ff0000;" parent="WIyWlLk6GJQsqaUBKTNV-1" vertex="1">
          <mxGeometry x="645" y="30" width="30" height="30" as="geometry" />
        </mxCell>
        <mxCell id="cyFxnOvqambi-OT4J-ao-32" value="" style="edgeStyle=orthogonalEdgeStyle;html=1;verticalAlign=bottom;endArrow=open;endSize=8;strokeColor=#ff0000;rounded=0;" parent="WIyWlLk6GJQsqaUBKTNV-1" source="cyFxnOvqambi-OT4J-ao-31" edge="1">
          <mxGeometry relative="1" as="geometry">
            <mxPoint x="660" y="120" as="targetPoint" />
          </mxGeometry>
        </mxCell>
        <mxCell id="rnMzFVEXDFbTbHylvlPK-5" value="is request accepted&lt;span style=&quot;background-color: initial;&quot;&gt;?&lt;/span&gt;" style="rhombus;whiteSpace=wrap;html=1;shadow=0;fontFamily=Helvetica;fontSize=12;align=center;strokeWidth=1;spacing=6;spacingTop=-4;" parent="WIyWlLk6GJQsqaUBKTNV-1" vertex="1">
          <mxGeometry x="190" y="370" width="120" height="80" as="geometry" />
        </mxCell>
        <mxCell id="rnMzFVEXDFbTbHylvlPK-8" value="Receive request" style="rounded=1;whiteSpace=wrap;html=1;fontSize=12;glass=0;strokeWidth=1;shadow=0;" parent="WIyWlLk6GJQsqaUBKTNV-1" vertex="1">
          <mxGeometry x="320" y="270" width="120" height="40" as="geometry" />
        </mxCell>
        <mxCell id="rnMzFVEXDFbTbHylvlPK-9" value="" style="shape=mxgraph.sysml.actFinal;html=1;verticalLabelPosition=bottom;labelBackgroundColor=#ffffff;verticalAlign=top;" parent="WIyWlLk6GJQsqaUBKTNV-1" vertex="1">
          <mxGeometry x="400" y="400" width="40" height="40" as="geometry" />
        </mxCell>
        <mxCell id="rnMzFVEXDFbTbHylvlPK-14" value="No" style="text;html=1;align=center;verticalAlign=middle;whiteSpace=wrap;rounded=0;" parent="WIyWlLk6GJQsqaUBKTNV-1" vertex="1">
          <mxGeometry x="320" y="390" width="60" height="30" as="geometry" />
        </mxCell>
        <mxCell id="rnMzFVEXDFbTbHylvlPK-18" value="Add category" style="rounded=1;whiteSpace=wrap;html=1;fontSize=12;glass=0;strokeWidth=1;shadow=0;" parent="WIyWlLk6GJQsqaUBKTNV-1" vertex="1">
          <mxGeometry x="190" y="580" width="120" height="40" as="geometry" />
        </mxCell>
        <mxCell id="rnMzFVEXDFbTbHylvlPK-21" value="" style="shape=mxgraph.sysml.actFinal;html=1;verticalLabelPosition=bottom;labelBackgroundColor=#ffffff;verticalAlign=top;" parent="WIyWlLk6GJQsqaUBKTNV-1" vertex="1">
          <mxGeometry x="210" y="700" width="40" height="40" as="geometry" />
        </mxCell>
        <mxCell id="g3eqtA8y8bKDf27U_hoG-0" value="" style="endArrow=classic;html=1;rounded=0;exitX=0;exitY=1;exitDx=0;exitDy=0;entryX=0.89;entryY=0.025;entryDx=0;entryDy=0;entryPerimeter=0;" edge="1" parent="WIyWlLk6GJQsqaUBKTNV-1" source="WIyWlLk6GJQsqaUBKTNV-3" target="rnMzFVEXDFbTbHylvlPK-8">
          <mxGeometry width="50" height="50" relative="1" as="geometry">
            <mxPoint x="480" y="240" as="sourcePoint" />
            <mxPoint x="530" y="190" as="targetPoint" />
          </mxGeometry>
        </mxCell>
        <mxCell id="g3eqtA8y8bKDf27U_hoG-1" value="" style="endArrow=classic;html=1;rounded=0;exitX=0.15;exitY=1.085;exitDx=0;exitDy=0;exitPerimeter=0;entryX=0.553;entryY=0.093;entryDx=0;entryDy=0;entryPerimeter=0;" edge="1" parent="WIyWlLk6GJQsqaUBKTNV-1" source="rnMzFVEXDFbTbHylvlPK-8" target="rnMzFVEXDFbTbHylvlPK-5">
          <mxGeometry width="50" height="50" relative="1" as="geometry">
            <mxPoint x="170" y="340" as="sourcePoint" />
            <mxPoint x="220" y="290" as="targetPoint" />
          </mxGeometry>
        </mxCell>
        <mxCell id="g3eqtA8y8bKDf27U_hoG-3" value="" style="endArrow=classic;html=1;rounded=0;exitX=0.9;exitY=0.623;exitDx=0;exitDy=0;exitPerimeter=0;" edge="1" parent="WIyWlLk6GJQsqaUBKTNV-1" source="rnMzFVEXDFbTbHylvlPK-5">
          <mxGeometry width="50" height="50" relative="1" as="geometry">
            <mxPoint x="280" y="450" as="sourcePoint" />
            <mxPoint x="400" y="420" as="targetPoint" />
          </mxGeometry>
        </mxCell>
        <mxCell id="g3eqtA8y8bKDf27U_hoG-4" value="" style="endArrow=classic;html=1;rounded=0;exitX=0.447;exitY=0.982;exitDx=0;exitDy=0;entryX=0.42;entryY=-0.045;entryDx=0;entryDy=0;entryPerimeter=0;exitPerimeter=0;" edge="1" parent="WIyWlLk6GJQsqaUBKTNV-1" source="rnMzFVEXDFbTbHylvlPK-5" target="rnMzFVEXDFbTbHylvlPK-18">
          <mxGeometry width="50" height="50" relative="1" as="geometry">
            <mxPoint x="180" y="530" as="sourcePoint" />
            <mxPoint x="230" y="480" as="targetPoint" />
          </mxGeometry>
        </mxCell>
        <mxCell id="g3eqtA8y8bKDf27U_hoG-5" value="Yes" style="text;html=1;align=center;verticalAlign=middle;whiteSpace=wrap;rounded=0;" vertex="1" parent="WIyWlLk6GJQsqaUBKTNV-1">
          <mxGeometry x="240" y="490" width="60" height="30" as="geometry" />
        </mxCell>
        <mxCell id="g3eqtA8y8bKDf27U_hoG-6" value="" style="endArrow=classic;html=1;rounded=0;exitX=0.25;exitY=1;exitDx=0;exitDy=0;entryX=0.33;entryY=0.025;entryDx=0;entryDy=0;entryPerimeter=0;" edge="1" parent="WIyWlLk6GJQsqaUBKTNV-1" source="rnMzFVEXDFbTbHylvlPK-18" target="rnMzFVEXDFbTbHylvlPK-21">
          <mxGeometry width="50" height="50" relative="1" as="geometry">
            <mxPoint x="260" y="680" as="sourcePoint" />
            <mxPoint x="310" y="630" as="targetPoint" />
          </mxGeometry>
        </mxCell>
      </root>
    </mxGraphModel>
  </diagram>
</mxfile>
